<mxfile host="app.diagrams.net" modified="2021-11-29T02:28:01.896Z" agent="5.0 (Windows NT 10.0; Win64; x64) AppleWebKit/537.36 (KHTML, like Gecko) Chrome/96.0.4664.45 Safari/537.36" etag="PgSwib2JgNsYsV-22jeJ" version="15.8.2" type="github">
  <diagram id="XWPlI7JWbAQifne3nbJJ" name="Page-1">
    <mxGraphModel dx="1038" dy="500" grid="1" gridSize="10" guides="1" tooltips="1" connect="1" arrows="1" fold="1" page="1" pageScale="1" pageWidth="850" pageHeight="1100" math="0" shadow="0">
      <root>
        <mxCell id="0" />
        <mxCell id="1" parent="0" />
        <mxCell id="UmLdyPY70sOt1DjMS40i-3" value="Alur Pembeli" style="swimlane;" parent="1" vertex="1">
          <mxGeometry x="30" y="110" width="460" height="980" as="geometry" />
        </mxCell>
        <mxCell id="UmLdyPY70sOt1DjMS40i-35" style="edgeStyle=orthogonalEdgeStyle;rounded=0;orthogonalLoop=1;jettySize=auto;html=1;exitX=0.5;exitY=1;exitDx=0;exitDy=0;exitPerimeter=0;entryX=0.5;entryY=0;entryDx=0;entryDy=0;" parent="UmLdyPY70sOt1DjMS40i-3" source="UmLdyPY70sOt1DjMS40i-6" target="UmLdyPY70sOt1DjMS40i-26" edge="1">
          <mxGeometry relative="1" as="geometry" />
        </mxCell>
        <mxCell id="UmLdyPY70sOt1DjMS40i-6" value="Mulai" style="strokeWidth=2;html=1;shape=mxgraph.flowchart.terminator;whiteSpace=wrap;" parent="UmLdyPY70sOt1DjMS40i-3" vertex="1">
          <mxGeometry x="190" y="40" width="60" height="30" as="geometry" />
        </mxCell>
        <mxCell id="UmLdyPY70sOt1DjMS40i-16" style="edgeStyle=orthogonalEdgeStyle;rounded=0;orthogonalLoop=1;jettySize=auto;html=1;exitX=0.5;exitY=1;exitDx=0;exitDy=0;entryX=0.5;entryY=0;entryDx=0;entryDy=0;startArrow=none;" parent="UmLdyPY70sOt1DjMS40i-3" source="UmLdyPY70sOt1DjMS40i-25" target="UmLdyPY70sOt1DjMS40i-24" edge="1">
          <mxGeometry relative="1" as="geometry">
            <mxPoint x="220" y="130" as="sourcePoint" />
            <mxPoint x="220" y="150" as="targetPoint" />
          </mxGeometry>
        </mxCell>
        <mxCell id="UmLdyPY70sOt1DjMS40i-10" value="Otentikasi&lt;br&gt;" style="text;html=1;align=center;verticalAlign=middle;resizable=0;points=[];autosize=1;strokeColor=none;fillColor=none;" parent="UmLdyPY70sOt1DjMS40i-3" vertex="1">
          <mxGeometry x="292.5" y="120" width="70" height="20" as="geometry" />
        </mxCell>
        <mxCell id="UmLdyPY70sOt1DjMS40i-14" value="Belum Punya akun?" style="text;html=1;align=center;verticalAlign=middle;resizable=0;points=[];autosize=1;strokeColor=none;fillColor=none;" parent="UmLdyPY70sOt1DjMS40i-3" vertex="1">
          <mxGeometry x="50" y="90" width="120" height="20" as="geometry" />
        </mxCell>
        <mxCell id="UmLdyPY70sOt1DjMS40i-41" style="edgeStyle=orthogonalEdgeStyle;rounded=0;orthogonalLoop=1;jettySize=auto;html=1;exitX=0;exitY=0.5;exitDx=0;exitDy=0;exitPerimeter=0;entryX=0.508;entryY=0.998;entryDx=0;entryDy=0;entryPerimeter=0;" parent="UmLdyPY70sOt1DjMS40i-3" source="UmLdyPY70sOt1DjMS40i-22" target="UmLdyPY70sOt1DjMS40i-40" edge="1">
          <mxGeometry relative="1" as="geometry" />
        </mxCell>
        <mxCell id="UmLdyPY70sOt1DjMS40i-22" value="Yakin beli?" style="strokeWidth=2;html=1;shape=mxgraph.flowchart.decision;whiteSpace=wrap;" parent="UmLdyPY70sOt1DjMS40i-3" vertex="1">
          <mxGeometry x="170" y="290" width="100" height="70" as="geometry" />
        </mxCell>
        <mxCell id="UmLdyPY70sOt1DjMS40i-38" style="edgeStyle=orthogonalEdgeStyle;rounded=0;orthogonalLoop=1;jettySize=auto;html=1;exitX=0.5;exitY=1;exitDx=0;exitDy=0;entryX=0.5;entryY=0;entryDx=0;entryDy=0;" parent="UmLdyPY70sOt1DjMS40i-3" source="UmLdyPY70sOt1DjMS40i-24" target="UmLdyPY70sOt1DjMS40i-23" edge="1">
          <mxGeometry relative="1" as="geometry" />
        </mxCell>
        <mxCell id="UmLdyPY70sOt1DjMS40i-24" value="&lt;span&gt;Akses Layanan Aplikasi (Shopee)&lt;/span&gt;" style="rounded=1;whiteSpace=wrap;html=1;absoluteArcSize=1;arcSize=14;strokeWidth=2;" parent="UmLdyPY70sOt1DjMS40i-3" vertex="1">
          <mxGeometry x="170" y="170" width="100" height="35" as="geometry" />
        </mxCell>
        <mxCell id="UmLdyPY70sOt1DjMS40i-39" style="edgeStyle=orthogonalEdgeStyle;rounded=0;orthogonalLoop=1;jettySize=auto;html=1;exitX=0.5;exitY=1;exitDx=0;exitDy=0;entryX=0.5;entryY=0;entryDx=0;entryDy=0;entryPerimeter=0;" parent="UmLdyPY70sOt1DjMS40i-3" source="UmLdyPY70sOt1DjMS40i-23" target="UmLdyPY70sOt1DjMS40i-22" edge="1">
          <mxGeometry relative="1" as="geometry" />
        </mxCell>
        <mxCell id="UmLdyPY70sOt1DjMS40i-23" value="&lt;span&gt;Pemilihan Produk yang diinginkan&lt;/span&gt;" style="rounded=1;whiteSpace=wrap;html=1;absoluteArcSize=1;arcSize=14;strokeWidth=2;" parent="UmLdyPY70sOt1DjMS40i-3" vertex="1">
          <mxGeometry x="170" y="220" width="100" height="40" as="geometry" />
        </mxCell>
        <mxCell id="UmLdyPY70sOt1DjMS40i-36" style="edgeStyle=orthogonalEdgeStyle;rounded=0;orthogonalLoop=1;jettySize=auto;html=1;exitX=0.5;exitY=1;exitDx=0;exitDy=0;entryX=0.5;entryY=0;entryDx=0;entryDy=0;" parent="UmLdyPY70sOt1DjMS40i-3" source="UmLdyPY70sOt1DjMS40i-26" target="UmLdyPY70sOt1DjMS40i-25" edge="1">
          <mxGeometry relative="1" as="geometry" />
        </mxCell>
        <mxCell id="UmLdyPY70sOt1DjMS40i-26" value="Registrasi" style="shape=parallelogram;html=1;strokeWidth=2;perimeter=parallelogramPerimeter;whiteSpace=wrap;rounded=1;arcSize=12;size=0.23;" parent="UmLdyPY70sOt1DjMS40i-3" vertex="1">
          <mxGeometry x="170" y="90" width="100" height="20" as="geometry" />
        </mxCell>
        <mxCell id="UmLdyPY70sOt1DjMS40i-25" value="Login" style="shape=parallelogram;html=1;strokeWidth=2;perimeter=parallelogramPerimeter;whiteSpace=wrap;rounded=1;arcSize=12;size=0.23;" parent="UmLdyPY70sOt1DjMS40i-3" vertex="1">
          <mxGeometry x="170" y="130" width="100" height="20" as="geometry" />
        </mxCell>
        <mxCell id="UmLdyPY70sOt1DjMS40i-42" style="edgeStyle=orthogonalEdgeStyle;rounded=0;orthogonalLoop=1;jettySize=auto;html=1;entryX=0;entryY=0.5;entryDx=0;entryDy=0;" parent="UmLdyPY70sOt1DjMS40i-3" source="UmLdyPY70sOt1DjMS40i-40" target="UmLdyPY70sOt1DjMS40i-23" edge="1">
          <mxGeometry relative="1" as="geometry">
            <Array as="points">
              <mxPoint x="85" y="240" />
            </Array>
          </mxGeometry>
        </mxCell>
        <mxCell id="UmLdyPY70sOt1DjMS40i-40" value="Tidak yakin" style="text;html=1;align=center;verticalAlign=middle;resizable=0;points=[];autosize=1;strokeColor=none;fillColor=none;" parent="UmLdyPY70sOt1DjMS40i-3" vertex="1">
          <mxGeometry x="45" y="270" width="80" height="20" as="geometry" />
        </mxCell>
        <mxCell id="UmLdyPY70sOt1DjMS40i-88" style="edgeStyle=orthogonalEdgeStyle;rounded=0;orthogonalLoop=1;jettySize=auto;html=1;entryX=0.5;entryY=0;entryDx=0;entryDy=0;" parent="UmLdyPY70sOt1DjMS40i-3" source="UmLdyPY70sOt1DjMS40i-45" target="UmLdyPY70sOt1DjMS40i-47" edge="1">
          <mxGeometry relative="1" as="geometry" />
        </mxCell>
        <mxCell id="UmLdyPY70sOt1DjMS40i-45" value="Yakin!, Lanjutkan proses" style="text;html=1;align=center;verticalAlign=middle;resizable=0;points=[];autosize=1;strokeColor=none;fillColor=none;" parent="UmLdyPY70sOt1DjMS40i-3" vertex="1">
          <mxGeometry x="145" y="380" width="150" height="20" as="geometry" />
        </mxCell>
        <mxCell id="UmLdyPY70sOt1DjMS40i-49" style="edgeStyle=orthogonalEdgeStyle;rounded=0;orthogonalLoop=1;jettySize=auto;html=1;exitX=0.5;exitY=1;exitDx=0;exitDy=0;entryX=0.5;entryY=0;entryDx=0;entryDy=0;entryPerimeter=0;" parent="UmLdyPY70sOt1DjMS40i-3" source="UmLdyPY70sOt1DjMS40i-47" target="UmLdyPY70sOt1DjMS40i-48" edge="1">
          <mxGeometry relative="1" as="geometry" />
        </mxCell>
        <mxCell id="UmLdyPY70sOt1DjMS40i-47" value="Validasi data identitas dan alamat lengkap" style="rounded=1;whiteSpace=wrap;html=1;absoluteArcSize=1;arcSize=14;strokeWidth=2;" parent="UmLdyPY70sOt1DjMS40i-3" vertex="1">
          <mxGeometry x="150" y="430" width="140" height="40" as="geometry" />
        </mxCell>
        <mxCell id="UmLdyPY70sOt1DjMS40i-53" style="edgeStyle=orthogonalEdgeStyle;rounded=0;orthogonalLoop=1;jettySize=auto;html=1;exitX=0;exitY=0.5;exitDx=0;exitDy=0;exitPerimeter=0;" parent="UmLdyPY70sOt1DjMS40i-3" source="UmLdyPY70sOt1DjMS40i-48" target="UmLdyPY70sOt1DjMS40i-52" edge="1">
          <mxGeometry relative="1" as="geometry" />
        </mxCell>
        <mxCell id="UmLdyPY70sOt1DjMS40i-59" style="edgeStyle=orthogonalEdgeStyle;rounded=0;orthogonalLoop=1;jettySize=auto;html=1;exitX=0.5;exitY=1;exitDx=0;exitDy=0;exitPerimeter=0;" parent="UmLdyPY70sOt1DjMS40i-3" source="UmLdyPY70sOt1DjMS40i-48" target="UmLdyPY70sOt1DjMS40i-57" edge="1">
          <mxGeometry relative="1" as="geometry" />
        </mxCell>
        <mxCell id="UmLdyPY70sOt1DjMS40i-48" value="Konfirmasi Pesanan" style="strokeWidth=2;html=1;shape=mxgraph.flowchart.decision;whiteSpace=wrap;" parent="UmLdyPY70sOt1DjMS40i-3" vertex="1">
          <mxGeometry x="170" y="490" width="100" height="60" as="geometry" />
        </mxCell>
        <mxCell id="UmLdyPY70sOt1DjMS40i-62" style="edgeStyle=orthogonalEdgeStyle;rounded=0;orthogonalLoop=1;jettySize=auto;html=1;exitX=0.5;exitY=1;exitDx=0;exitDy=0;entryX=0.5;entryY=0;entryDx=0;entryDy=0;" parent="UmLdyPY70sOt1DjMS40i-3" source="UmLdyPY70sOt1DjMS40i-50" target="UmLdyPY70sOt1DjMS40i-61" edge="1">
          <mxGeometry relative="1" as="geometry" />
        </mxCell>
        <mxCell id="UmLdyPY70sOt1DjMS40i-50" value="Checkout total Pembayaran" style="rounded=1;whiteSpace=wrap;html=1;absoluteArcSize=1;arcSize=14;strokeWidth=2;" parent="UmLdyPY70sOt1DjMS40i-3" vertex="1">
          <mxGeometry x="165" y="610" width="110" height="40" as="geometry" />
        </mxCell>
        <mxCell id="UmLdyPY70sOt1DjMS40i-54" style="edgeStyle=orthogonalEdgeStyle;rounded=0;orthogonalLoop=1;jettySize=auto;html=1;" parent="UmLdyPY70sOt1DjMS40i-3" source="UmLdyPY70sOt1DjMS40i-52" target="UmLdyPY70sOt1DjMS40i-40" edge="1">
          <mxGeometry relative="1" as="geometry" />
        </mxCell>
        <mxCell id="UmLdyPY70sOt1DjMS40i-52" value="Cancel" style="text;html=1;align=center;verticalAlign=middle;resizable=0;points=[];autosize=1;strokeColor=none;fillColor=none;" parent="UmLdyPY70sOt1DjMS40i-3" vertex="1">
          <mxGeometry x="60" y="510" width="50" height="20" as="geometry" />
        </mxCell>
        <mxCell id="UmLdyPY70sOt1DjMS40i-60" style="edgeStyle=orthogonalEdgeStyle;rounded=0;orthogonalLoop=1;jettySize=auto;html=1;entryX=0.5;entryY=0;entryDx=0;entryDy=0;" parent="UmLdyPY70sOt1DjMS40i-3" source="UmLdyPY70sOt1DjMS40i-57" target="UmLdyPY70sOt1DjMS40i-50" edge="1">
          <mxGeometry relative="1" as="geometry" />
        </mxCell>
        <mxCell id="UmLdyPY70sOt1DjMS40i-57" value="Yes" style="text;html=1;align=center;verticalAlign=middle;resizable=0;points=[];autosize=1;strokeColor=none;fillColor=none;" parent="UmLdyPY70sOt1DjMS40i-3" vertex="1">
          <mxGeometry x="205" y="560" width="30" height="20" as="geometry" />
        </mxCell>
        <mxCell id="UmLdyPY70sOt1DjMS40i-64" style="edgeStyle=orthogonalEdgeStyle;rounded=0;orthogonalLoop=1;jettySize=auto;html=1;entryX=0.5;entryY=0;entryDx=0;entryDy=0;" parent="UmLdyPY70sOt1DjMS40i-3" source="UmLdyPY70sOt1DjMS40i-61" target="UmLdyPY70sOt1DjMS40i-63" edge="1">
          <mxGeometry relative="1" as="geometry" />
        </mxCell>
        <mxCell id="UmLdyPY70sOt1DjMS40i-93" style="edgeStyle=orthogonalEdgeStyle;rounded=0;orthogonalLoop=1;jettySize=auto;html=1;exitX=0.5;exitY=1;exitDx=0;exitDy=0;entryX=0;entryY=0.5;entryDx=0;entryDy=0;" parent="UmLdyPY70sOt1DjMS40i-3" source="UmLdyPY70sOt1DjMS40i-61" target="UmLdyPY70sOt1DjMS40i-68" edge="1">
          <mxGeometry relative="1" as="geometry" />
        </mxCell>
        <mxCell id="UmLdyPY70sOt1DjMS40i-61" value="Proses Pembayaran" style="rounded=1;whiteSpace=wrap;html=1;absoluteArcSize=1;arcSize=14;strokeWidth=2;" parent="UmLdyPY70sOt1DjMS40i-3" vertex="1">
          <mxGeometry x="165" y="670" width="110" height="40" as="geometry" />
        </mxCell>
        <mxCell id="UmLdyPY70sOt1DjMS40i-101" style="edgeStyle=orthogonalEdgeStyle;rounded=0;orthogonalLoop=1;jettySize=auto;html=1;exitX=0.5;exitY=1;exitDx=0;exitDy=0;entryX=0.5;entryY=0;entryDx=0;entryDy=0;entryPerimeter=0;fontSize=8;" parent="UmLdyPY70sOt1DjMS40i-3" source="UmLdyPY70sOt1DjMS40i-63" target="UmLdyPY70sOt1DjMS40i-96" edge="1">
          <mxGeometry relative="1" as="geometry" />
        </mxCell>
        <mxCell id="UmLdyPY70sOt1DjMS40i-63" value="Cash on delivery" style="verticalLabelPosition=middle;verticalAlign=middle;html=1;shape=trapezoid;perimeter=trapezoidPerimeter;whiteSpace=wrap;size=0.23;arcSize=10;flipV=1;labelPosition=center;align=center;" parent="UmLdyPY70sOt1DjMS40i-3" vertex="1">
          <mxGeometry x="20" y="730" width="130" height="30" as="geometry" />
        </mxCell>
        <mxCell id="UmLdyPY70sOt1DjMS40i-91" style="edgeStyle=orthogonalEdgeStyle;rounded=0;orthogonalLoop=1;jettySize=auto;html=1;exitX=0.5;exitY=1;exitDx=0;exitDy=0;entryX=1;entryY=0.5;entryDx=0;entryDy=0;" parent="UmLdyPY70sOt1DjMS40i-3" source="UmLdyPY70sOt1DjMS40i-68" target="UmLdyPY70sOt1DjMS40i-90" edge="1">
          <mxGeometry relative="1" as="geometry" />
        </mxCell>
        <mxCell id="UmLdyPY70sOt1DjMS40i-68" value="VA Transfer/Shopeepay" style="rounded=1;whiteSpace=wrap;html=1;absoluteArcSize=1;arcSize=14;strokeWidth=2;" parent="UmLdyPY70sOt1DjMS40i-3" vertex="1">
          <mxGeometry x="275" y="730" width="135" height="30" as="geometry" />
        </mxCell>
        <mxCell id="UmLdyPY70sOt1DjMS40i-73" style="edgeStyle=orthogonalEdgeStyle;rounded=0;orthogonalLoop=1;jettySize=auto;html=1;exitX=0.5;exitY=1;exitDx=0;exitDy=0;entryX=0.5;entryY=0;entryDx=0;entryDy=0;entryPerimeter=0;" parent="UmLdyPY70sOt1DjMS40i-3" source="UmLdyPY70sOt1DjMS40i-70" target="UmLdyPY70sOt1DjMS40i-72" edge="1">
          <mxGeometry relative="1" as="geometry" />
        </mxCell>
        <mxCell id="UmLdyPY70sOt1DjMS40i-70" value="Barang diterima" style="shape=parallelogram;html=1;strokeWidth=2;perimeter=parallelogramPerimeter;whiteSpace=wrap;rounded=1;arcSize=12;size=0.23;" parent="UmLdyPY70sOt1DjMS40i-3" vertex="1">
          <mxGeometry x="220" y="870" width="125" height="40" as="geometry" />
        </mxCell>
        <mxCell id="UmLdyPY70sOt1DjMS40i-72" value="Selesai" style="strokeWidth=2;html=1;shape=mxgraph.flowchart.terminator;whiteSpace=wrap;" parent="UmLdyPY70sOt1DjMS40i-3" vertex="1">
          <mxGeometry x="242.5" y="930" width="80" height="40" as="geometry" />
        </mxCell>
        <mxCell id="UmLdyPY70sOt1DjMS40i-44" style="edgeStyle=orthogonalEdgeStyle;rounded=0;orthogonalLoop=1;jettySize=auto;html=1;exitX=0.5;exitY=1;exitDx=0;exitDy=0;exitPerimeter=0;entryX=0.495;entryY=-0.02;entryDx=0;entryDy=0;entryPerimeter=0;" parent="UmLdyPY70sOt1DjMS40i-3" source="UmLdyPY70sOt1DjMS40i-22" target="UmLdyPY70sOt1DjMS40i-45" edge="1">
          <mxGeometry relative="1" as="geometry">
            <mxPoint x="250" y="350" as="targetPoint" />
          </mxGeometry>
        </mxCell>
        <mxCell id="UmLdyPY70sOt1DjMS40i-90" value="Selesai Pembayaran" style="rounded=1;whiteSpace=wrap;html=1;absoluteArcSize=1;arcSize=14;strokeWidth=2;" parent="UmLdyPY70sOt1DjMS40i-3" vertex="1">
          <mxGeometry x="175" y="780" width="100" height="40" as="geometry" />
        </mxCell>
        <mxCell id="UmLdyPY70sOt1DjMS40i-105" style="edgeStyle=orthogonalEdgeStyle;rounded=0;orthogonalLoop=1;jettySize=auto;html=1;exitX=1;exitY=0.5;exitDx=0;exitDy=0;exitPerimeter=0;entryX=0;entryY=0.5;entryDx=0;entryDy=0;fontSize=8;" parent="UmLdyPY70sOt1DjMS40i-3" source="UmLdyPY70sOt1DjMS40i-96" target="UmLdyPY70sOt1DjMS40i-70" edge="1">
          <mxGeometry relative="1" as="geometry">
            <Array as="points">
              <mxPoint x="170" y="890" />
              <mxPoint x="170" y="890" />
            </Array>
          </mxGeometry>
        </mxCell>
        <mxCell id="UmLdyPY70sOt1DjMS40i-106" style="edgeStyle=orthogonalEdgeStyle;rounded=0;orthogonalLoop=1;jettySize=auto;html=1;exitX=1;exitY=0.5;exitDx=0;exitDy=0;exitPerimeter=0;entryX=0.25;entryY=1;entryDx=0;entryDy=0;fontSize=10;" parent="UmLdyPY70sOt1DjMS40i-3" source="UmLdyPY70sOt1DjMS40i-96" target="UmLdyPY70sOt1DjMS40i-90" edge="1">
          <mxGeometry relative="1" as="geometry" />
        </mxCell>
        <mxCell id="UmLdyPY70sOt1DjMS40i-96" value="Tanda terima pembayaran&lt;br style=&quot;font-size: 9px;&quot;&gt;lewat kurir shopee" style="strokeWidth=2;html=1;shape=mxgraph.flowchart.document2;whiteSpace=wrap;size=0.25;fontSize=9;" parent="UmLdyPY70sOt1DjMS40i-3" vertex="1">
          <mxGeometry x="31.25" y="860" width="107.5" height="60" as="geometry" />
        </mxCell>
        <mxCell id="UmLdyPY70sOt1DjMS40i-77" value="Alur Penjual/Pelapak" style="swimlane;" parent="1" vertex="1">
          <mxGeometry x="500" y="110" width="350" height="980" as="geometry" />
        </mxCell>
        <mxCell id="UmLdyPY70sOt1DjMS40i-81" style="edgeStyle=orthogonalEdgeStyle;rounded=0;orthogonalLoop=1;jettySize=auto;html=1;exitX=0.5;exitY=1;exitDx=0;exitDy=0;entryX=0.5;entryY=0;entryDx=0;entryDy=0;entryPerimeter=0;" parent="UmLdyPY70sOt1DjMS40i-77" source="UmLdyPY70sOt1DjMS40i-79" target="UmLdyPY70sOt1DjMS40i-80" edge="1">
          <mxGeometry relative="1" as="geometry" />
        </mxCell>
        <mxCell id="UmLdyPY70sOt1DjMS40i-79" value="Menerima order pembelian" style="rounded=1;whiteSpace=wrap;html=1;absoluteArcSize=1;arcSize=14;strokeWidth=2;" parent="UmLdyPY70sOt1DjMS40i-77" vertex="1">
          <mxGeometry x="90" y="60" width="140" height="50" as="geometry" />
        </mxCell>
        <mxCell id="UmLdyPY70sOt1DjMS40i-83" value="" style="edgeStyle=orthogonalEdgeStyle;rounded=0;orthogonalLoop=1;jettySize=auto;html=1;exitX=0.496;exitY=0.909;exitDx=0;exitDy=0;exitPerimeter=0;" parent="UmLdyPY70sOt1DjMS40i-77" source="UmLdyPY70sOt1DjMS40i-80" target="UmLdyPY70sOt1DjMS40i-82" edge="1">
          <mxGeometry relative="1" as="geometry" />
        </mxCell>
        <mxCell id="UmLdyPY70sOt1DjMS40i-80" value="Data Invoice/faktur pembelian" style="strokeWidth=2;shape=mxgraph.flowchart.document2;size=0.25;fontSize=13;fontColor=default;whiteSpace=wrap;html=1;spacing=2;align=center;fontStyle=0" parent="UmLdyPY70sOt1DjMS40i-77" vertex="1">
          <mxGeometry x="110" y="140" width="100" height="60" as="geometry" />
        </mxCell>
        <mxCell id="UmLdyPY70sOt1DjMS40i-85" style="edgeStyle=orthogonalEdgeStyle;rounded=0;orthogonalLoop=1;jettySize=auto;html=1;exitX=0.5;exitY=1;exitDx=0;exitDy=0;entryX=0.5;entryY=0;entryDx=0;entryDy=0;" parent="UmLdyPY70sOt1DjMS40i-77" source="UmLdyPY70sOt1DjMS40i-82" target="UmLdyPY70sOt1DjMS40i-84" edge="1">
          <mxGeometry relative="1" as="geometry" />
        </mxCell>
        <mxCell id="UmLdyPY70sOt1DjMS40i-82" value="Memproses Pesanan" style="rounded=1;whiteSpace=wrap;html=1;absoluteArcSize=1;arcSize=14;strokeWidth=2;" parent="UmLdyPY70sOt1DjMS40i-77" vertex="1">
          <mxGeometry x="90" y="230" width="140" height="50" as="geometry" />
        </mxCell>
        <mxCell id="UmLdyPY70sOt1DjMS40i-84" value="Pesanan dikirim" style="verticalLabelPosition=middle;verticalAlign=middle;html=1;shape=trapezoid;perimeter=trapezoidPerimeter;whiteSpace=wrap;size=0.23;arcSize=10;flipV=1;labelPosition=center;align=center;" parent="UmLdyPY70sOt1DjMS40i-77" vertex="1">
          <mxGeometry x="90" y="320" width="140" height="40" as="geometry" />
        </mxCell>
        <mxCell id="UmLdyPY70sOt1DjMS40i-78" style="edgeStyle=orthogonalEdgeStyle;rounded=0;orthogonalLoop=1;jettySize=auto;html=1;entryX=0;entryY=0.5;entryDx=0;entryDy=0;" parent="1" target="UmLdyPY70sOt1DjMS40i-79" edge="1">
          <mxGeometry relative="1" as="geometry">
            <mxPoint x="510" y="230" as="targetPoint" />
            <mxPoint x="305" y="800" as="sourcePoint" />
            <Array as="points">
              <mxPoint x="305" y="800" />
              <mxPoint x="520" y="800" />
              <mxPoint x="520" y="195" />
            </Array>
          </mxGeometry>
        </mxCell>
        <mxCell id="UmLdyPY70sOt1DjMS40i-87" style="edgeStyle=orthogonalEdgeStyle;rounded=0;orthogonalLoop=1;jettySize=auto;html=1;exitX=0.5;exitY=1;exitDx=0;exitDy=0;entryX=1;entryY=0.5;entryDx=0;entryDy=0;" parent="1" source="UmLdyPY70sOt1DjMS40i-84" target="UmLdyPY70sOt1DjMS40i-70" edge="1">
          <mxGeometry relative="1" as="geometry">
            <mxPoint x="330" y="980" as="targetPoint" />
            <Array as="points">
              <mxPoint x="660" y="1000" />
            </Array>
          </mxGeometry>
        </mxCell>
        <mxCell id="UmLdyPY70sOt1DjMS40i-94" style="edgeStyle=orthogonalEdgeStyle;rounded=0;orthogonalLoop=1;jettySize=auto;html=1;exitX=0.5;exitY=1;exitDx=0;exitDy=0;entryX=-0.008;entryY=0.414;entryDx=0;entryDy=0;entryPerimeter=0;" parent="1" source="UmLdyPY70sOt1DjMS40i-90" target="UmLdyPY70sOt1DjMS40i-80" edge="1">
          <mxGeometry relative="1" as="geometry">
            <Array as="points">
              <mxPoint x="255" y="950" />
              <mxPoint x="540" y="950" />
              <mxPoint x="540" y="275" />
            </Array>
          </mxGeometry>
        </mxCell>
      </root>
    </mxGraphModel>
  </diagram>
</mxfile>
